<svg version="1.1" id="Layer_1" xmlns="http://www.w3.org/2000/svg" xmlns:xlink="http://www.w3.org/1999/xlink" x="0px" y="0px"
	 width="100%" viewBox="0 0 1013 142" enable-background="new 0 0 1013 142" xml:space="preserve">
<path fill="#FEFEFF" opacity="1.000000" stroke="none" 
	d="
M779.000000,143.000000 
	C519.333313,143.000000 260.166656,143.000000 1.000000,143.000000 
	C1.000000,95.666664 1.000000,48.333332 1.000000,1.000000 
	C338.666656,1.000000 676.333313,1.000000 1014.000000,1.000000 
	C1014.000000,48.333332 1014.000000,95.666664 1014.000000,143.000000 
	C935.833313,143.000000 857.666687,143.000000 779.000000,143.000000 
M808.367859,65.951401 
	C815.098633,61.555153 820.113098,55.692902 823.350037,48.332321 
	C831.389526,30.051266 824.748657,19.211096 804.838318,18.937504 
	C784.852173,18.662868 764.857056,19.094213 744.867310,18.979256 
	C741.513367,18.959965 741.233826,20.995878 740.417603,23.155092 
	C728.659790,54.260361 716.875671,85.355728 705.091980,116.451218 
	C704.182495,118.851257 703.228455,121.234398 702.488770,123.129311 
	C725.278870,123.129311 747.766907,123.596474 770.224060,122.965843 
	C785.314209,122.542099 797.127441,115.171318 805.147400,102.162514 
	C808.709290,96.384911 811.075867,90.199120 810.710266,83.305458 
	C810.386902,77.206734 806.825378,72.955360 801.582947,69.875565 
	C804.002563,68.460915 805.863892,67.372650 808.367859,65.951401 
M137.321884,77.834381 
	C142.155045,67.661522 145.578644,57.183228 145.158356,45.689011 
	C144.636124,31.406370 137.042496,22.460173 122.802002,20.008724 
	C119.205238,19.389551 115.525108,18.965445 111.881798,18.954704 
	C93.555756,18.900688 75.228325,19.119797 56.903675,18.967581 
	C53.670631,18.940725 53.139065,20.670610 52.280056,22.919350 
	C40.292126,54.301666 28.254385,85.664963 16.225737,117.031723 
	C15.410233,119.158287 14.570420,121.275528 13.700424,123.503349 
	C33.765667,123.503349 53.372208,123.752663 72.965790,123.358101 
	C79.199066,123.232574 85.627403,122.112129 91.571213,120.211090 
	C113.028275,113.348351 126.999039,98.015938 137.321884,77.834381 
M594.722778,123.993576 
	C603.705261,123.993576 612.687683,123.993576 621.759094,123.993576 
	C628.986816,105.044144 636.431763,86.369339 643.215454,67.457298 
	C648.121887,53.778851 643.246643,46.051170 629.044067,43.423111 
	C627.578552,43.151939 626.069336,43.088581 624.576233,42.999371 
	C613.349426,42.328590 602.997192,45.289375 592.862305,51.235928 
	C593.426208,48.840073 593.828674,47.129955 594.356262,44.888481 
	C584.890198,44.888481 575.777039,45.062500 566.676392,44.801010 
	C563.141174,44.699436 561.533386,45.736748 560.205444,49.147655 
	C550.981140,72.840797 541.469543,96.422035 532.066284,120.045631 
	C531.601868,121.212479 531.287903,122.439247 530.790344,123.992386 
	C540.600708,123.992386 549.923828,123.773476 559.228027,124.097733 
	C563.068665,124.231575 564.640442,122.842972 566.002869,119.418449 
	C570.850403,107.233498 575.804932,95.074097 581.282776,83.164352 
	C583.884460,77.507843 588.319519,72.787521 594.599060,71.120399 
	C597.497986,70.350800 601.674255,70.324699 603.782837,71.923981 
	C605.490967,73.219582 605.949707,77.711517 605.250061,80.327766 
	C603.497070,86.883034 600.857788,93.211258 598.415833,99.569794 
	C595.335876,107.589577 592.098755,115.549004 588.744141,124.001289 
	C590.838684,124.001289 592.314331,124.001289 594.722778,123.993576 
M476.635803,87.447937 
	C482.240601,73.462555 487.845398,59.477173 493.692474,44.887264 
	C483.721741,44.887264 474.427612,45.059105 465.145752,44.797199 
	C461.742249,44.701160 460.156860,45.709183 459.040283,48.966373 
	C456.076813,57.611252 452.721985,66.122772 449.481873,74.671814 
	C445.597076,84.921768 441.179749,95.001747 437.901764,105.440674 
	C434.756195,115.458069 439.205994,122.724464 449.447937,124.681053 
	C455.059265,125.753021 461.139832,126.087753 466.727753,125.124489 
	C473.586029,123.942245 480.150696,121.056831 486.869568,118.898941 
	C486.648560,120.101082 486.331848,121.823792 485.931885,123.999229 
	C495.666382,123.999229 505.122528,124.115395 514.568176,123.853592 
	C515.761719,123.820511 517.446472,122.020523 517.983215,120.672630 
	C527.453552,96.889854 536.785522,73.051964 546.125916,49.217556 
	C546.621582,47.952766 546.926880,46.613396 547.448303,44.886417 
	C537.577393,44.886417 528.423889,45.035759 519.279846,44.806034 
	C516.046143,44.724792 514.743225,45.830223 513.634827,48.833187 
	C509.548096,59.905033 505.248383,70.906883 500.683624,81.790291 
	C498.097748,87.955612 494.919647,94.235085 488.304016,96.789650 
	C485.116730,98.020401 480.758240,97.867706 477.573883,96.653305 
	C476.280548,96.160095 476.700012,91.175819 476.635803,87.447937 
M339.447266,96.015686 
	C338.335999,110.699814 345.178223,121.088379 359.372284,123.736557 
	C367.884888,125.324738 377.041077,126.060471 385.523712,124.729721 
	C412.012299,120.574211 429.338776,104.935608 436.967407,79.236320 
	C442.163788,61.730865 434.891602,49.458511 417.372345,44.708149 
	C403.041901,40.822430 389.211884,43.054974 376.053864,49.116306 
	C356.238495,58.244400 343.224792,73.061424 339.447266,96.015686 
M943.444763,48.881741 
	C925.362305,58.323780 914.328918,73.353661 909.373108,92.845650 
	C905.077332,109.741302 911.989014,121.494057 928.281555,124.575943 
	C942.832092,127.328331 957.461548,126.174080 971.914917,123.117630 
	C972.906067,122.908035 974.157715,122.192863 974.590637,121.353180 
	C978.309326,114.139862 981.867126,106.843628 985.896545,98.718231 
	C983.535339,99.176414 982.131531,99.526146 980.706360,99.712830 
	C971.501709,100.918587 962.316406,102.498962 953.071167,103.038544 
	C950.012146,103.217072 945.985657,101.426277 943.904236,99.157333 
	C942.218750,97.320038 942.431152,93.392067 942.629700,90.447250 
	C942.673706,89.794052 946.190613,88.938316 948.116211,88.918350 
	C962.274536,88.771530 976.436829,88.678970 990.593018,88.893074 
	C994.006592,88.944702 995.886841,87.886345 996.933350,84.790192 
	C998.472900,80.235138 1000.575684,75.814217 1001.600525,71.151962 
	C1004.712036,56.996635 997.827454,46.826405 983.656616,44.149742 
	C970.042725,41.578274 956.837463,42.897099 943.444763,48.881741 
M911.274719,64.589607 
	C910.868591,53.165821 904.684021,46.342575 892.708496,44.105995 
	C858.007141,37.625084 826.696472,58.128387 818.482788,92.711487 
	C814.497986,109.489471 820.878174,120.974060 836.871399,124.345131 
	C851.579346,127.445282 866.364563,126.152870 881.001831,123.151550 
	C881.891174,122.969177 883.087524,122.497971 883.449036,121.801842 
	C887.295471,114.394852 891.001892,106.915161 895.144409,98.663368 
	C892.293030,99.233574 890.535706,99.706879 888.747253,99.922173 
	C879.537781,101.030792 870.338501,102.348824 861.093750,102.956284 
	C858.600159,103.120132 855.000916,101.746735 853.632812,99.841377 
	C851.959412,97.510796 851.736816,93.876884 851.744690,90.808731 
	C851.746399,90.150246 855.412292,88.959969 857.401978,88.934616 
	C871.565125,88.754166 885.732422,88.717987 899.895813,88.868942 
	C903.000854,88.902046 905.079895,88.123528 905.922302,85.089195 
	C907.730530,78.575996 909.462219,72.041550 911.274719,64.589607 
M658.833862,50.157196 
	C656.438477,56.411175 654.043030,62.665157 651.315308,69.786659 
	C655.676941,69.786659 658.894287,69.786659 662.745850,69.786659 
	C661.198975,73.737335 659.924011,76.950821 658.680847,80.176567 
	C655.096252,89.477493 650.978455,98.618202 648.100220,108.133453 
	C645.189270,117.756989 649.352295,124.283539 659.322571,124.925453 
	C668.823425,125.537140 678.455688,124.204102 688.020447,123.577187 
	C688.999084,123.513046 690.329224,122.650894 690.787842,121.784180 
	C694.631958,114.519409 698.310425,107.166946 702.290588,99.346153 
	C698.079224,99.936981 694.662415,100.629745 691.215332,100.850632 
	C685.863098,101.193588 684.323303,99.418320 685.871765,94.395271 
	C687.582581,88.845200 689.683899,83.408485 691.776489,77.984657 
	C695.061279,69.470795 695.152954,69.007500 704.345581,69.660721 
	C710.641541,70.108093 713.629089,68.137703 715.062317,62.028793 
	C716.312561,56.699940 718.679626,51.633110 720.777710,45.829475 
	C714.640747,45.829475 709.543457,45.829475 703.955017,45.829475 
	C706.527283,38.771839 708.929993,32.179489 711.594421,24.868958 
	C702.590515,26.616959 694.525818,28.616873 686.339050,29.622780 
	C680.665710,30.319860 677.680237,32.629288 675.920044,38.124786 
	C673.405701,45.974815 673.003357,45.935749 664.457947,45.875183 
	C661.697021,45.855621 659.505920,46.119560 658.833862,50.157196 
M291.789703,50.225510 
	C274.799164,60.852367 265.308167,76.543732 261.476685,95.837601 
	C258.291534,111.876961 265.766235,122.575851 281.829956,125.250107 
	C292.855469,127.085609 303.739502,125.486893 314.522736,123.100143 
	C315.388336,122.908554 316.494904,122.325409 316.865051,121.603867 
	C320.789398,113.954048 324.587128,106.239311 328.938904,97.499718 
	C326.207703,98.022247 324.648865,98.391869 323.069092,98.609924 
	C317.316681,99.403969 311.553986,100.785278 305.801331,100.755508 
	C297.812073,100.714165 294.546082,95.760910 296.423096,88.016174 
	C300.000641,73.255150 311.558258,65.728096 326.852295,68.342232 
	C331.078217,69.064545 335.237915,70.174362 339.856384,71.201675 
	C342.223969,62.804531 344.535461,54.606365 346.957336,46.016663 
	C327.971741,41.886494 309.843658,40.528839 291.789703,50.225510 
M251.151352,43.254059 
	C245.824982,43.213200 240.470032,42.798946 235.177795,43.204014 
	C221.310440,44.265434 209.649475,49.421520 202.883896,62.443150 
	C198.745987,70.407326 198.828049,78.113892 205.247696,85.040306 
	C208.415253,88.457893 211.700638,91.766487 214.857407,95.193756 
	C217.894531,98.491104 217.428986,101.056946 213.079559,101.944260 
	C209.274826,102.720459 205.109604,102.855286 201.294846,102.185074 
	C195.964630,101.248619 190.812149,99.300529 185.119370,97.650757 
	C183.064423,106.006424 181.071533,114.109741 178.968033,122.662766 
	C185.842468,123.734329 192.036469,125.099976 198.299408,125.597359 
	C213.986313,126.843147 228.937927,124.798500 241.236954,113.723396 
	C252.676773,103.422012 252.963425,90.557480 242.127045,79.843216 
	C239.996964,77.737099 237.653931,75.845177 235.540924,73.723206 
	C231.918564,70.085457 232.544159,67.822678 237.572372,66.474579 
	C239.153809,66.050591 240.893982,65.801903 242.505432,65.980080 
	C248.883331,66.685326 255.238998,67.591667 262.036926,68.480171 
	C264.071045,61.308105 266.220032,53.731052 268.512939,45.646488 
	C262.555054,44.814342 257.315613,44.082542 251.151352,43.254059 
M138.322906,105.780060 
	C135.807327,111.683983 133.291748,117.587898 130.666321,123.749603 
	C142.717270,123.749603 154.142670,123.749603 165.056351,123.749603 
	C174.942368,97.283783 184.682983,71.207207 194.514801,44.886448 
	C184.877686,44.886448 175.238373,45.033417 165.608078,44.803146 
	C162.430466,44.727169 161.026566,45.704575 159.919083,48.706486 
	C152.966568,67.552208 145.782532,86.312531 138.322906,105.780060 
M170.619598,20.970217 
	C168.652313,26.512300 166.685028,32.054382 164.596786,37.937180 
	C175.775192,37.937180 186.218369,37.937180 196.862854,37.937180 
	C199.440170,31.115963 201.991241,24.364216 204.746307,17.072565 
	C194.069595,17.072565 184.268250,16.963306 174.475891,17.210375 
	C173.247116,17.241375 172.065781,19.151630 170.619598,20.970217 
z"/>
<path fill="#6625E3" opacity="1.000000" stroke="none" 
	d="
M808.046570,66.117889 
	C805.863892,67.372650 804.002563,68.460915 801.582947,69.875565 
	C806.825378,72.955360 810.386902,77.206734 810.710266,83.305458 
	C811.075867,90.199120 808.709290,96.384911 805.147400,102.162514 
	C797.127441,115.171318 785.314209,122.542099 770.224060,122.965843 
	C747.766907,123.596474 725.278870,123.129311 702.488770,123.129311 
	C703.228455,121.234398 704.182495,118.851257 705.091980,116.451218 
	C716.875671,85.355728 728.659790,54.260361 740.417603,23.155092 
	C741.233826,20.995878 741.513367,18.959965 744.867310,18.979256 
	C764.857056,19.094213 784.852173,18.662868 804.838318,18.937504 
	C824.748657,19.211096 831.389526,30.051266 823.350037,48.332321 
	C820.113098,55.692902 815.098633,61.555153 808.046570,66.117889 
M769.048096,98.845558 
	C771.015015,96.927963 773.511353,95.320641 774.850769,93.035240 
	C779.075256,85.827110 776.947388,82.336792 768.459900,82.083694 
	C763.823608,81.945442 759.175232,81.913780 754.543762,82.107315 
	C753.331543,82.157982 751.491394,82.939217 751.084106,83.880287 
	C748.811096,89.132111 746.889587,94.536072 744.277405,101.383728 
	C753.053345,100.536903 760.676636,99.801308 769.048096,98.845558 
M780.275085,41.885975 
	C776.794983,41.869556 773.308899,41.732311 769.838318,41.906525 
	C768.721313,41.962601 767.022217,42.560654 766.653137,43.386284 
	C764.460632,48.290897 762.580322,53.335087 760.088135,59.608448 
	C768.152283,58.809692 774.925964,58.534580 781.535706,57.346760 
	C786.042053,56.536926 790.417969,50.360508 789.777161,46.670639 
	C788.925842,41.768536 784.826538,42.129726 780.275085,41.885975 
z"/>
<path fill="#6625E3" opacity="1.000000" stroke="none" 
	d="
M137.166122,78.174988 
	C126.999039,98.015938 113.028275,113.348351 91.571213,120.211090 
	C85.627403,122.112129 79.199066,123.232574 72.965790,123.358101 
	C53.372208,123.752663 33.765667,123.503349 13.700424,123.503349 
	C14.570420,121.275528 15.410233,119.158287 16.225737,117.031723 
	C28.254385,85.664963 40.292126,54.301666 52.280056,22.919350 
	C53.139065,20.670610 53.670631,18.940725 56.903675,18.967581 
	C75.228325,19.119797 93.555756,18.900688 111.881798,18.954704 
	C115.525108,18.965445 119.205238,19.389551 122.802002,20.008724 
	C137.042496,22.460173 144.636124,31.406370 145.158356,45.689011 
	C145.578644,57.183228 142.155045,67.661522 137.166122,78.174988 
M97.955444,83.420403 
	C103.495773,75.387268 107.980751,66.906288 108.112206,56.854263 
	C108.215164,48.981556 104.420090,44.738323 96.540268,44.073338 
	C91.588371,43.655441 86.560730,43.623184 81.610359,43.994724 
	C80.017242,44.114292 77.763321,45.754482 77.168320,47.241745 
	C71.557686,61.266109 66.235535,75.405983 60.843475,89.517616 
	C59.741051,92.402779 58.694202,95.309174 57.436531,98.706009 
	C73.527069,99.708633 87.688217,97.770088 97.955444,83.420403 
z"/>
<path fill="#6725E3" opacity="1.000000" stroke="none" 
	d="
M594.256409,123.997437 
	C592.314331,124.001289 590.838684,124.001289 588.744141,124.001289 
	C592.098755,115.549004 595.335876,107.589577 598.415833,99.569794 
	C600.857788,93.211258 603.497070,86.883034 605.250061,80.327766 
	C605.949707,77.711517 605.490967,73.219582 603.782837,71.923981 
	C601.674255,70.324699 597.497986,70.350800 594.599060,71.120399 
	C588.319519,72.787521 583.884460,77.507843 581.282776,83.164352 
	C575.804932,95.074097 570.850403,107.233498 566.002869,119.418449 
	C564.640442,122.842972 563.068665,124.231575 559.228027,124.097733 
	C549.923828,123.773476 540.600708,123.992386 530.790344,123.992386 
	C531.287903,122.439247 531.601868,121.212479 532.066284,120.045631 
	C541.469543,96.422035 550.981140,72.840797 560.205444,49.147655 
	C561.533386,45.736748 563.141174,44.699436 566.676392,44.801010 
	C575.777039,45.062500 584.890198,44.888481 594.356262,44.888481 
	C593.828674,47.129955 593.426208,48.840073 592.862305,51.235928 
	C602.997192,45.289375 613.349426,42.328590 624.576233,42.999371 
	C626.069336,43.088581 627.578552,43.151939 629.044067,43.423111 
	C643.246643,46.051170 648.121887,53.778851 643.215454,67.457298 
	C636.431763,86.369339 628.986816,105.044144 621.759094,123.993576 
	C612.687683,123.993576 603.705261,123.993576 594.256409,123.997437 
z"/>
<path fill="#6725E3" opacity="1.000000" stroke="none" 
	d="
M476.487976,87.841484 
	C476.700012,91.175819 476.280548,96.160095 477.573883,96.653305 
	C480.758240,97.867706 485.116730,98.020401 488.304016,96.789650 
	C494.919647,94.235085 498.097748,87.955612 500.683624,81.790291 
	C505.248383,70.906883 509.548096,59.905033 513.634827,48.833187 
	C514.743225,45.830223 516.046143,44.724792 519.279846,44.806034 
	C528.423889,45.035759 537.577393,44.886417 547.448303,44.886417 
	C546.926880,46.613396 546.621582,47.952766 546.125916,49.217556 
	C536.785522,73.051964 527.453552,96.889854 517.983215,120.672630 
	C517.446472,122.020523 515.761719,123.820511 514.568176,123.853592 
	C505.122528,124.115395 495.666382,123.999229 485.931885,123.999229 
	C486.331848,121.823792 486.648560,120.101082 486.869568,118.898941 
	C480.150696,121.056831 473.586029,123.942245 466.727753,125.124489 
	C461.139832,126.087753 455.059265,125.753021 449.447937,124.681053 
	C439.205994,122.724464 434.756195,115.458069 437.901764,105.440674 
	C441.179749,95.001747 445.597076,84.921768 449.481873,74.671814 
	C452.721985,66.122772 456.076813,57.611252 459.040283,48.966373 
	C460.156860,45.709183 461.742249,44.701160 465.145752,44.797199 
	C474.427612,45.059105 483.721741,44.887264 493.692474,44.887264 
	C487.845398,59.477173 482.240601,73.462555 476.487976,87.841484 
z"/>
<path fill="#6625E3" opacity="1.000000" stroke="none" 
	d="
M339.539124,95.593422 
	C343.224792,73.061424 356.238495,58.244400 376.053864,49.116306 
	C389.211884,43.054974 403.041901,40.822430 417.372345,44.708149 
	C434.891602,49.458511 442.163788,61.730865 436.967407,79.236320 
	C429.338776,104.935608 412.012299,120.574211 385.523712,124.729721 
	C377.041077,126.060471 367.884888,125.324738 359.372284,123.736557 
	C345.178223,121.088379 338.335999,110.699814 339.539124,95.593422 
M401.562347,69.858940 
	C397.608887,67.154671 393.431763,67.417976 389.232269,69.071266 
	C380.996124,72.313759 373.030975,84.222687 373.100739,93.057922 
	C373.144989,98.661140 377.221832,102.268974 382.879578,101.711800 
	C394.141724,100.602692 405.753845,85.643211 403.970856,74.386391 
	C403.752747,73.009476 402.762085,71.754929 401.562347,69.858940 
z"/>
<path fill="#6726E3" opacity="1.000000" stroke="none" 
	d="
M943.788269,48.724689 
	C956.837463,42.897099 970.042725,41.578274 983.656616,44.149742 
	C997.827454,46.826405 1004.712036,56.996635 1001.600525,71.151962 
	C1000.575684,75.814217 998.472900,80.235138 996.933350,84.790192 
	C995.886841,87.886345 994.006592,88.944702 990.593018,88.893074 
	C976.436829,88.678970 962.274536,88.771530 948.116211,88.918350 
	C946.190613,88.938316 942.673706,89.794052 942.629700,90.447250 
	C942.431152,93.392067 942.218750,97.320038 943.904236,99.157333 
	C945.985657,101.426277 950.012146,103.217072 953.071167,103.038544 
	C962.316406,102.498962 971.501709,100.918587 980.706360,99.712830 
	C982.131531,99.526146 983.535339,99.176414 985.896545,98.718231 
	C981.867126,106.843628 978.309326,114.139862 974.590637,121.353180 
	C974.157715,122.192863 972.906067,122.908035 971.914917,123.117630 
	C957.461548,126.174080 942.832092,127.328331 928.281555,124.575943 
	C911.989014,121.494057 905.077332,109.741302 909.373108,92.845650 
	C914.328918,73.353661 925.362305,58.323780 943.788269,48.724689 
M965.227966,63.268990 
	C957.693298,63.363518 952.731750,67.284401 948.861389,74.214386 
	C955.130981,74.214386 960.745117,74.016563 966.336792,74.285255 
	C969.949219,74.458839 970.967590,72.837563 971.070251,69.632339 
	C971.187500,65.971832 969.400940,64.088768 965.227966,63.268990 
z"/>
<path fill="#6726E3" opacity="1.000000" stroke="none" 
	d="
M911.250000,65.052704 
	C909.462219,72.041550 907.730530,78.575996 905.922302,85.089195 
	C905.079895,88.123528 903.000854,88.902046 899.895813,88.868942 
	C885.732422,88.717987 871.565125,88.754166 857.401978,88.934616 
	C855.412292,88.959969 851.746399,90.150246 851.744690,90.808731 
	C851.736816,93.876884 851.959412,97.510796 853.632812,99.841377 
	C855.000916,101.746735 858.600159,103.120132 861.093750,102.956284 
	C870.338501,102.348824 879.537781,101.030792 888.747253,99.922173 
	C890.535706,99.706879 892.293030,99.233574 895.144409,98.663368 
	C891.001892,106.915161 887.295471,114.394852 883.449036,121.801842 
	C883.087524,122.497971 881.891174,122.969177 881.001831,123.151550 
	C866.364563,126.152870 851.579346,127.445282 836.871399,124.345131 
	C820.878174,120.974060 814.497986,109.489471 818.482788,92.711487 
	C826.696472,58.128387 858.007141,37.625084 892.708496,44.105995 
	C904.684021,46.342575 910.868591,53.165821 911.250000,65.052704 
M868.856018,64.064186 
	C864.220825,66.071129 860.496704,69.004700 858.306885,74.215363 
	C864.070618,74.215363 869.368591,74.215538 874.666565,74.215141 
	C875.329834,74.215088 876.197388,74.480118 876.617798,74.159767 
	C877.844543,73.225082 879.641113,72.201843 879.884216,70.954147 
	C881.086182,64.785767 877.382629,62.332573 868.856018,64.064186 
z"/>
<path fill="#6725E3" opacity="1.000000" stroke="none" 
	d="
M658.935181,49.764866 
	C659.505920,46.119560 661.697021,45.855621 664.457947,45.875183 
	C673.003357,45.935749 673.405701,45.974815 675.920044,38.124786 
	C677.680237,32.629288 680.665710,30.319860 686.339050,29.622780 
	C694.525818,28.616873 702.590515,26.616959 711.594421,24.868958 
	C708.929993,32.179489 706.527283,38.771839 703.955017,45.829475 
	C709.543457,45.829475 714.640747,45.829475 720.777710,45.829475 
	C718.679626,51.633110 716.312561,56.699940 715.062317,62.028793 
	C713.629089,68.137703 710.641541,70.108093 704.345581,69.660721 
	C695.152954,69.007500 695.061279,69.470795 691.776489,77.984657 
	C689.683899,83.408485 687.582581,88.845200 685.871765,94.395271 
	C684.323303,99.418320 685.863098,101.193588 691.215332,100.850632 
	C694.662415,100.629745 698.079224,99.936981 702.290588,99.346153 
	C698.310425,107.166946 694.631958,114.519409 690.787842,121.784180 
	C690.329224,122.650894 688.999084,123.513046 688.020447,123.577187 
	C678.455688,124.204102 668.823425,125.537140 659.322571,124.925453 
	C649.352295,124.283539 645.189270,117.756989 648.100220,108.133453 
	C650.978455,98.618202 655.096252,89.477493 658.680847,80.176567 
	C659.924011,76.950821 661.198975,73.737335 662.745850,69.786659 
	C658.894287,69.786659 655.676941,69.786659 651.315308,69.786659 
	C654.043030,62.665157 656.438477,56.411175 658.935181,49.764866 
z"/>
<path fill="#6726E3" opacity="1.000000" stroke="none" 
	d="
M292.112000,50.049629 
	C309.843658,40.528839 327.971741,41.886494 346.957336,46.016663 
	C344.535461,54.606365 342.223969,62.804531 339.856384,71.201675 
	C335.237915,70.174362 331.078217,69.064545 326.852295,68.342232 
	C311.558258,65.728096 300.000641,73.255150 296.423096,88.016174 
	C294.546082,95.760910 297.812073,100.714165 305.801331,100.755508 
	C311.553986,100.785278 317.316681,99.403969 323.069092,98.609924 
	C324.648865,98.391869 326.207703,98.022247 328.938904,97.499718 
	C324.587128,106.239311 320.789398,113.954048 316.865051,121.603867 
	C316.494904,122.325409 315.388336,122.908554 314.522736,123.100143 
	C303.739502,125.486893 292.855469,127.085609 281.829956,125.250107 
	C265.766235,122.575851 258.291534,111.876961 261.476685,95.837601 
	C265.308167,76.543732 274.799164,60.852367 292.112000,50.049629 
z"/>
<path fill="#6726E3" opacity="1.000000" stroke="none" 
	d="
M251.613770,43.302402 
	C257.315613,44.082542 262.555054,44.814342 268.512939,45.646488 
	C266.220032,53.731052 264.071045,61.308105 262.036926,68.480171 
	C255.238998,67.591667 248.883331,66.685326 242.505432,65.980080 
	C240.893982,65.801903 239.153809,66.050591 237.572372,66.474579 
	C232.544159,67.822678 231.918564,70.085457 235.540924,73.723206 
	C237.653931,75.845177 239.996964,77.737099 242.127045,79.843216 
	C252.963425,90.557480 252.676773,103.422012 241.236954,113.723396 
	C228.937927,124.798500 213.986313,126.843147 198.299408,125.597359 
	C192.036469,125.099976 185.842468,123.734329 178.968033,122.662766 
	C181.071533,114.109741 183.064423,106.006424 185.119370,97.650757 
	C190.812149,99.300529 195.964630,101.248619 201.294846,102.185074 
	C205.109604,102.855286 209.274826,102.720459 213.079559,101.944260 
	C217.428986,101.056946 217.894531,98.491104 214.857407,95.193756 
	C211.700638,91.766487 208.415253,88.457893 205.247696,85.040306 
	C198.828049,78.113892 198.745987,70.407326 202.883896,62.443150 
	C209.649475,49.421520 221.310440,44.265434 235.177795,43.204014 
	C240.470032,42.798946 245.824982,43.213200 251.613770,43.302402 
z"/>
<path fill="#6726E3" opacity="1.000000" stroke="none" 
	d="
M138.498978,105.440582 
	C145.782532,86.312531 152.966568,67.552208 159.919083,48.706486 
	C161.026566,45.704575 162.430466,44.727169 165.608078,44.803146 
	C175.238373,45.033417 184.877686,44.886448 194.514801,44.886448 
	C184.682983,71.207207 174.942368,97.283783 165.056351,123.749603 
	C154.142670,123.749603 142.717270,123.749603 130.666321,123.749603 
	C133.291748,117.587898 135.807327,111.683983 138.498978,105.440582 
z"/>
<path fill="#6828E4" opacity="1.000000" stroke="none" 
	d="
M170.741028,20.580690 
	C172.065781,19.151630 173.247116,17.241375 174.475891,17.210375 
	C184.268250,16.963306 194.069595,17.072565 204.746307,17.072565 
	C201.991241,24.364216 199.440170,31.115963 196.862854,37.937180 
	C186.218369,37.937180 175.775192,37.937180 164.596786,37.937180 
	C166.685028,32.054382 168.652313,26.512300 170.741028,20.580690 
z"/>
<path fill="#FBF9FE" opacity="1.000000" stroke="none" 
	d="
M768.674011,98.955627 
	C760.676636,99.801308 753.053345,100.536903 744.277405,101.383728 
	C746.889587,94.536072 748.811096,89.132111 751.084106,83.880287 
	C751.491394,82.939217 753.331543,82.157982 754.543762,82.107315 
	C759.175232,81.913780 763.823608,81.945442 768.459900,82.083694 
	C776.947388,82.336792 779.075256,85.827110 774.850769,93.035240 
	C773.511353,95.320641 771.015015,96.927963 768.674011,98.955627 
z"/>
<path fill="#FCFBFE" opacity="1.000000" stroke="none" 
	d="
M780.736389,41.898514 
	C784.826538,42.129726 788.925842,41.768536 789.777161,46.670639 
	C790.417969,50.360508 786.042053,56.536926 781.535706,57.346760 
	C774.925964,58.534580 768.152283,58.809692 760.088135,59.608448 
	C762.580322,53.335087 764.460632,48.290897 766.653137,43.386284 
	C767.022217,42.560654 768.721313,41.962601 769.838318,41.906525 
	C773.308899,41.732311 776.794983,41.869556 780.736389,41.898514 
z"/>
<path fill="#FEFDFF" opacity="1.000000" stroke="none" 
	d="
M97.733391,83.703400 
	C87.688217,97.770088 73.527069,99.708633 57.436531,98.706009 
	C58.694202,95.309174 59.741051,92.402779 60.843475,89.517616 
	C66.235535,75.405983 71.557686,61.266109 77.168320,47.241745 
	C77.763321,45.754482 80.017242,44.114292 81.610359,43.994724 
	C86.560730,43.623184 91.588371,43.655441 96.540268,44.073338 
	C104.420090,44.738323 108.215164,48.981556 108.112206,56.854263 
	C107.980751,66.906288 103.495773,75.387268 97.733391,83.703400 
z"/>
<path fill="#FDFCFF" opacity="1.000000" stroke="none" 
	d="
M401.845886,70.151306 
	C402.762085,71.754929 403.752747,73.009476 403.970856,74.386391 
	C405.753845,85.643211 394.141724,100.602692 382.879578,101.711800 
	C377.221832,102.268974 373.144989,98.661140 373.100739,93.057922 
	C373.030975,84.222687 380.996124,72.313759 389.232269,69.071266 
	C393.431763,67.417976 397.608887,67.154671 401.845886,70.151306 
z"/>
<path fill="#FCFAFE" opacity="1.000000" stroke="none" 
	d="
M965.618347,63.330589 
	C969.400940,64.088768 971.187500,65.971832 971.070251,69.632339 
	C970.967590,72.837563 969.949219,74.458839 966.336792,74.285255 
	C960.745117,74.016563 955.130981,74.214386 948.861389,74.214386 
	C952.731750,67.284401 957.693298,63.363518 965.618347,63.330589 
z"/>
<path fill="#FCFAFE" opacity="1.000000" stroke="none" 
	d="
M869.236084,63.975246 
	C877.382629,62.332573 881.086182,64.785767 879.884216,70.954147 
	C879.641113,72.201843 877.844543,73.225082 876.617798,74.159767 
	C876.197388,74.480118 875.329834,74.215088 874.666565,74.215141 
	C869.368591,74.215538 864.070618,74.215363 858.306885,74.215363 
	C860.496704,69.004700 864.220825,66.071129 869.236084,63.975246 
z"/>
</svg>