<?xml version="1.0" standalone="no"?>
<!DOCTYPE svg PUBLIC "-//W3C//DTD SVG 20010904//EN"
 "http://www.w3.org/TR/2001/REC-SVG-20010904/DTD/svg10.dtd">
<svg version="1.0" xmlns="http://www.w3.org/2000/svg"
 width="888.000000pt" height="148.000000pt" viewBox="0 0 888.000000 148.000000"
 preserveAspectRatio="xMidYMid meet">
<metadata>
Created by potrace 1.16, written by Peter Selinger 2001-2019
</metadata>
<g transform="translate(0.000000,148.000000) scale(0.100000,-0.100000)"
fill="#000000" stroke="none">
<path d="M0 740 l0 -740 4440 0 4440 0 0 740 0 740 -4440 0 -4440 0 0 -740z
m1710 503 c0 -5 -14 -47 -32 -95 l-33 -88 -142 0 c-79 0 -143 3 -143 7 0 4 14
47 31 95 l32 88 143 0 c79 0 144 -3 144 -7z m-668 -32 c65 -25 122 -83 138
-140 45 -163 -61 -436 -231 -596 -100 -94 -207 -146 -337 -165 -66 -10 -592
-14 -592 -5 0 2 29 73 64 157 61 148 219 562 266 700 l24 67 145 4 c80 2 218
3 306 2 137 -2 168 -6 217 -24z m6105 1 c51 -26 73 -65 73 -126 0 -97 -76
-222 -168 -277 -20 -12 -39 -24 -41 -26 -2 -1 7 -12 21 -23 36 -28 51 -72 46
-133 -9 -102 -89 -217 -187 -270 -89 -49 -156 -57 -482 -57 l-296 0 59 142
c66 158 233 602 269 715 l23 73 165 3 c91 2 236 3 321 2 138 -1 160 -4 197
-23z m-947 -40 c0 -5 -11 -35 -24 -68 -45 -112 -47 -104 33 -104 47 0 71 -4
71 -12 0 -6 -16 -55 -37 -110 l-36 -98 -77 0 -77 0 -42 -114 c-24 -62 -41
-122 -39 -132 3 -17 12 -19 75 -18 l72 2 -54 -108 -54 -107 -76 -12 c-150 -22
-238 -9 -281 42 -23 27 -26 38 -21 82 3 28 34 120 70 208 l64 157 -48 0 c-27
0 -49 3 -49 8 0 4 17 52 38 107 l38 100 58 5 58 5 24 61 25 60 127 26 c144 29
162 31 162 20z m-3997 -163 c40 -6 73 -12 75 -14 5 -4 -49 -189 -58 -198 -4
-5 -26 -3 -49 3 -49 13 -146 16 -179 6 -36 -12 -26 -34 47 -111 72 -77 88
-111 76 -167 -35 -159 -224 -263 -444 -244 -127 10 -192 26 -186 45 2 9 14 54
25 101 12 47 23 90 25 97 3 8 26 4 80 -13 88 -28 166 -31 189 -8 9 8 16 18 16
21 0 3 -28 35 -61 71 -75 81 -93 121 -85 181 13 97 91 179 205 218 76 26 204
30 324 12z m703 -1 c42 -7 64 -16 64 -25 0 -20 -51 -196 -59 -205 -4 -4 -42 0
-85 8 -66 14 -88 14 -133 4 -88 -19 -154 -92 -169 -188 -5 -35 -3 -44 19 -66
22 -22 35 -26 84 -26 32 1 86 7 121 14 34 7 62 11 62 7 0 -3 -23 -54 -51 -113
-58 -119 -46 -111 -184 -129 -336 -44 -454 131 -298 441 69 137 213 254 343
279 67 13 214 13 286 -1z m742 -17 c54 -24 106 -74 124 -120 16 -42 11 -144
-12 -212 -55 -162 -183 -287 -355 -345 -102 -34 -246 -39 -340 -10 -121 36
-182 143 -157 273 40 199 206 368 420 425 97 25 248 20 320 -11z m1896 4 c28
-14 44 -30 58 -63 19 -41 19 -48 5 -101 -8 -31 -53 -155 -100 -276 -46 -121
-87 -228 -90 -237 -6 -16 -22 -18 -156 -18 l-149 0 63 158 c82 204 100 265 85
291 -25 47 -103 34 -165 -27 -41 -41 -104 -166 -160 -319 l-38 -103 -149 0
c-81 0 -148 3 -148 6 0 4 30 77 67 163 36 86 98 241 137 345 l72 190 147 0
c81 1 147 0 147 -2 0 -2 -5 -12 -11 -24 -15 -28 -5 -33 25 -13 14 9 52 26 83
36 76 25 219 22 277 -6z m2285 10 c57 -15 102 -50 128 -99 22 -43 13 -155 -20
-231 l-25 -60 -237 -3 -236 -2 3 -42 c6 -85 94 -103 295 -60 l92 19 -54 -108
c-31 -62 -62 -110 -72 -113 -10 -3 -56 -10 -103 -16 -220 -27 -362 2 -427 87
-24 31 -28 47 -31 112 -10 216 179 454 408 515 71 19 210 20 279 1z m845 -14
c55 -27 95 -81 103 -138 6 -45 -17 -144 -47 -203 l-20 -40 -233 -2 -232 -3 -3
-28 c-9 -73 64 -105 194 -88 43 7 105 18 137 25 31 7 57 12 57 10 0 -16 -107
-215 -118 -219 -8 -3 -68 -11 -133 -17 -216 -22 -356 12 -409 97 -69 111 -5
329 140 476 113 115 232 161 411 156 85 -3 114 -8 153 -26z m-7044 13 c0 0
-33 -84 -74 -185 -40 -101 -99 -259 -131 -351 l-59 -168 -154 0 c-142 0 -154
1 -149 18 3 9 35 89 72 177 51 123 159 408 189 500 2 6 63 10 155 10 83 0 151
0 151 -1z m2640 -7 c0 -4 -34 -89 -74 -187 -86 -206 -95 -239 -71 -263 22 -23
73 -21 113 3 55 34 85 90 184 344 l43 110 143 1 c78 1 142 -2 142 -7 0 -4 -30
-81 -67 -170 -36 -90 -97 -244 -134 -343 l-68 -180 -141 -3 c-77 -1 -140 0
-140 2 0 3 4 16 10 31 l10 26 -43 -25 c-65 -38 -160 -59 -239 -53 -75 6 -116
24 -148 64 -33 42 -23 121 30 248 33 79 138 352 154 400 4 12 296 15 296 2z"/>
<path d="M504 773 c-70 -180 -89 -240 -79 -245 25 -15 180 8 230 33 61 31 119
96 161 183 40 82 51 144 35 196 -16 54 -55 70 -168 70 l-88 0 -91 -237z"/>
<path d="M6666 959 c-14 -38 -26 -72 -26 -75 0 -8 136 -4 172 6 44 13 78 52
78 92 0 37 -28 48 -124 48 l-74 0 -26 -71z"/>
<path d="M6528 596 c-16 -40 -28 -76 -28 -79 0 -14 171 -7 205 7 35 15 75 67
75 98 0 38 -27 48 -128 48 l-97 0 -27 -74z"/>
<path d="M3353 789 c-100 -30 -187 -227 -121 -273 49 -34 125 -12 181 54 36
42 67 114 67 156 0 52 -61 83 -127 63z"/>
</g>
</svg>
