<svg version="1.1" id="Layer_1" xmlns="http://www.w3.org/2000/svg" xmlns:xlink="http://www.w3.org/1999/xlink" x="0px" y="0px"
	 width="100%" viewBox="0 0 888 148" enable-background="new 0 0 888 148" xml:space="preserve">
<path fill="#6624E3" opacity="1.000000" stroke="none" 
	d="
M677.000000,149.000000 
	C451.387634,149.000000 226.275269,149.000000 1.081452,149.000000 
	C1.081452,99.732986 1.081452,50.465790 1.081452,1.099298 
	C296.999969,1.099298 593.000000,1.099298 888.974243,1.099298 
	C888.974243,50.391430 888.974243,99.695724 888.974243,149.000000 
	C818.465698,149.000000 747.982849,149.000000 677.000000,149.000000 
M707.484253,67.109718 
	C715.220337,61.791286 720.281494,54.594208 722.473877,45.463314 
	C725.114807,34.464935 720.478943,27.597139 709.237183,26.013998 
	C705.456726,25.481607 701.600403,25.243376 697.781616,25.270298 
	C682.124451,25.380684 666.468567,25.757204 650.812012,25.763762 
	C647.459412,25.765165 647.195923,27.838919 646.385498,30.005611 
	C637.007080,55.081207 627.613647,80.151253 618.175781,105.204544 
	C616.495605,109.664879 614.594482,114.041992 612.369995,119.501457 
	C634.399414,118.964050 655.528503,118.820633 676.610352,117.748322 
	C684.860168,117.328697 692.276001,113.254837 698.179443,107.210258 
	C704.129944,101.117500 708.310608,94.032997 709.065369,85.317665 
	C709.619934,78.914322 706.561157,74.267937 701.116638,70.824074 
	C703.428955,69.508537 705.161133,68.523079 707.484253,67.109718 
M110.781181,82.231300 
	C113.347557,75.752060 116.614799,69.454460 118.349808,62.759766 
	C123.705360,42.094891 116.912010,26.354942 92.423889,25.782774 
	C75.944450,25.397730 59.444748,25.952135 42.957260,25.781683 
	C39.471500,25.745647 38.180008,26.873449 37.016212,30.026815 
	C28.490047,53.128914 19.775675,76.162148 11.005029,99.173035 
	C8.532827,105.659180 5.675812,111.998642 2.931077,118.558868 
	C20.803537,118.558868 38.237144,118.711136 55.664913,118.459305 
	C60.441788,118.390274 65.322517,117.559006 69.947250,116.307594 
	C88.436401,111.304573 100.973244,98.923683 110.781181,82.231300 
M473.946564,87.388725 
	C469.592041,97.754700 465.237518,108.120674 460.666718,119.001518 
	C469.595734,119.001518 477.900513,118.794968 486.186523,119.099358 
	C489.684875,119.227867 490.962769,117.906593 492.152222,114.826714 
	C496.100677,104.602882 500.221466,94.430794 504.728180,84.442810 
	C507.537201,78.217308 512.090332,73.295090 518.982178,71.358063 
	C525.124634,69.631622 529.113098,73.324493 527.227539,79.384758 
	C524.664490,87.622383 521.453369,95.661484 518.424500,103.749893 
	C516.580322,108.674736 514.556030,113.532173 512.382202,118.999451 
	C521.967102,118.999451 530.766602,119.122849 539.554016,118.854523 
	C540.749573,118.818024 542.414062,117.038277 542.961060,115.698174 
	C546.037720,108.160789 548.886353,100.528549 551.721619,92.894806 
	C555.134094,83.706772 558.963135,74.631180 561.670410,65.235657 
	C564.279053,56.182461 559.971924,50.035385 550.715271,47.991287 
	C547.974731,47.386105 544.999634,46.583717 542.349854,47.066669 
	C534.914978,48.421726 527.591980,50.392990 520.229248,52.139565 
	C519.050293,52.419231 517.893799,52.793499 516.521851,53.182125 
	C516.710449,51.449356 516.840515,50.254017 517.010376,48.693401 
	C508.661987,48.693401 500.679688,48.855865 492.709686,48.613716 
	C489.506348,48.516384 488.063629,49.584885 486.986298,52.579437 
	C482.878815,63.996624 478.480804,75.309273 473.946564,87.388725 
M380.179840,96.770683 
	C379.860321,97.716064 379.509155,98.652069 379.226044,99.608246 
	C375.536774,112.069786 379.822754,118.700027 392.863342,120.353821 
	C402.405762,121.563988 411.393768,119.731476 419.694458,114.753235 
	C420.280518,114.401741 421.044403,114.346786 422.158661,114.031357 
	C421.858246,116.003098 421.649109,117.375481 421.423706,118.854950 
	C430.704407,118.854950 439.674744,118.854950 448.356812,118.854950 
	C457.518005,95.947975 466.590881,73.268349 475.641876,50.579994 
	C475.812531,50.152180 475.724487,49.621166 475.755676,49.159950 
	C475.373871,49.007469 475.069092,48.780354 474.763580,48.779335 
	C468.770752,48.759388 462.777710,48.782227 456.784851,48.762924 
	C447.253723,48.732224 447.496918,48.820091 443.822449,57.914627 
	C439.660706,68.215187 435.255829,78.436432 430.453888,88.451073 
	C428.202362,93.146698 423.859131,95.923187 418.421906,96.237228 
	C413.481201,96.522575 411.158722,93.871407 412.419586,89.110283 
	C413.436676,85.269531 414.842896,81.510674 416.339417,77.822144 
	C420.197449,68.312881 424.201202,58.862759 428.436737,48.692669 
	C419.577850,48.692669 411.457336,48.886742 403.353760,48.601013 
	C399.917786,48.479858 398.438629,49.639713 397.251099,52.802258 
	C391.817139,67.273445 386.098053,81.637566 380.179840,96.770683 
M360.483124,107.016556 
	C369.844971,99.143982 375.900909,89.239525 378.627197,77.323990 
	C381.902679,63.008133 375.798767,52.855556 361.721771,48.716621 
	C352.280914,45.940811 342.879333,46.486320 333.627502,49.074684 
	C312.714783,54.925381 298.114014,67.647308 292.450287,89.105804 
	C288.304718,104.812500 294.917328,115.754868 310.773041,119.214569 
	C328.890106,123.167686 345.377502,119.029312 360.483124,107.016556 
M806.912415,117.831581 
	C821.671570,122.499886 836.515686,120.865425 851.358093,118.370987 
	C852.256775,118.219971 853.472839,117.716827 853.842834,117.011292 
	C857.190308,110.628273 860.381958,104.163536 864.058167,96.849579 
	C861.621521,97.158157 860.506470,97.248825 859.410706,97.446602 
	C853.688293,98.479500 848.004700,100.032021 842.240417,100.429115 
	C837.896240,100.728363 833.302368,100.084404 829.093872,98.892220 
	C825.137817,97.771568 824.406433,94.093803 825.143799,90.273460 
	C825.892212,86.395943 829.020264,87.879318 831.202454,87.841629 
	C840.855896,87.674843 850.513123,87.717964 860.169006,87.709175 
	C873.637573,87.696907 874.793884,86.784416 877.761475,73.494522 
	C878.086243,72.039993 878.230042,70.540970 878.395813,69.055656 
	C879.590576,58.350384 874.079041,50.647404 863.535828,48.262001 
	C831.255310,40.958557 800.078308,62.554138 795.357910,95.487175 
	C793.929688,105.452171 797.405640,112.468773 806.912415,117.831581 
M745.238953,52.668777 
	C744.220886,53.228806 743.150757,53.711906 742.192505,54.360298 
	C725.845459,65.420975 715.359863,80.078537 714.996216,100.441322 
	C714.828308,109.846039 720.480408,116.542336 729.535156,118.794182 
	C743.249756,122.204895 756.963989,120.751427 770.637207,118.391960 
	C771.674622,118.212952 773.061584,117.605606 773.496826,116.780861 
	C776.862122,110.403854 780.032959,103.924240 783.690979,96.624481 
	C781.154785,97.085007 779.719666,97.350876 778.282593,97.605614 
	C772.392212,98.649818 766.528503,100.258133 760.601318,100.542854 
	C756.302124,100.749359 751.551453,99.959091 747.731323,98.108192 
	C745.886963,97.214546 745.411377,92.890816 745.075317,90.030983 
	C745.012756,89.498528 748.552307,87.929924 750.455627,87.882271 
	C760.272095,87.636467 770.097046,87.717247 779.919067,87.708626 
	C793.876953,87.696365 793.899109,87.686340 797.204956,73.836838 
	C797.359253,73.190300 797.624634,72.567772 797.749268,71.917023 
	C800.157959,59.341339 794.410828,50.657127 781.940613,48.100254 
	C769.471008,45.543480 757.463074,47.116024 745.238953,52.668777 
M602.602173,98.364220 
	C598.022339,98.510109 597.154968,95.998001 598.373108,92.235107 
	C599.499023,88.757080 600.783936,85.328003 602.078979,81.907738 
	C606.275391,70.825150 606.292358,70.900566 618.156372,70.425690 
	C619.665588,70.365288 621.993347,69.480644 622.465820,68.357063 
	C624.950317,62.449387 626.960388,56.342159 629.436340,49.468071 
	C624.201233,49.468071 619.682251,49.468071 614.416321,49.468071 
	C616.835510,42.933090 618.940796,37.246048 621.279968,30.927280 
	C613.779114,32.348343 607.003845,34.052933 600.124329,34.808296 
	C594.116394,35.467964 590.215637,37.810570 589.119385,43.935608 
	C588.230774,48.900780 585.093445,50.113384 580.478943,49.697475 
	C578.752319,49.541855 575.799622,50.073792 575.318726,51.148327 
	C572.578979,57.270035 570.417053,63.650333 567.929565,70.287437 
	C571.480530,70.482758 574.353088,70.640770 577.741455,70.827148 
	C576.849854,73.221291 576.235046,74.915024 575.589966,76.597191 
	C571.901794,86.215210 567.771790,95.692200 564.654480,105.491508 
	C562.267212,112.996040 565.915833,119.127502 573.541809,119.659325 
	C582.386414,120.276146 591.360168,119.143364 600.267639,118.600906 
	C601.197205,118.544304 602.416992,117.535400 602.891724,116.643440 
	C606.238525,110.355103 609.425415,103.981667 612.903442,97.164963 
	C609.354736,97.610191 606.421753,97.978172 602.602173,98.364220 
M276.239258,107.857124 
	C278.090607,104.054398 279.941986,100.251671 282.248871,95.513237 
	C279.485138,96.042854 277.904419,96.468285 276.297028,96.631462 
	C270.876526,97.181778 265.417450,98.230919 260.028290,97.966187 
	C254.571793,97.698135 252.332962,93.909790 253.225128,88.531433 
	C255.404358,75.394066 265.783997,67.555229 279.000519,69.303581 
	C283.242096,69.864677 287.405884,71.013504 292.128998,72.003189 
	C294.188934,64.705864 296.234650,57.458801 298.388153,49.829918 
	C284.338226,46.204159 270.886871,45.424980 257.560974,49.762608 
	C238.997787,55.804981 222.687454,78.273003 221.978821,98.190689 
	C221.541550,110.481537 228.042053,118.517685 240.400070,119.959496 
	C246.287598,120.646385 252.321594,120.139397 258.288116,120.073112 
	C266.593140,119.980865 273.664612,117.909546 276.239258,107.857124 
M222.292343,70.028740 
	C224.586441,63.301266 226.880554,56.573792 229.362015,49.296894 
	C222.399826,48.444057 216.659805,47.470383 210.880920,47.094578 
	C201.520203,46.485863 192.276337,47.071995 183.624451,51.355953 
	C166.804688,59.684196 163.891068,75.494034 176.755112,88.861214 
	C176.985840,89.100967 177.248627,89.320755 177.432510,89.593056 
	C179.179367,92.180122 180.912369,94.776543 182.649368,97.370270 
	C179.120773,98.277542 175.629517,99.419479 172.047256,99.989525 
	C170.347885,100.259941 168.439041,99.567894 166.687668,99.084953 
	C162.891190,98.038071 159.135025,96.845093 154.816528,95.547905 
	C152.998245,103.028091 151.268509,110.144005 149.484558,117.483009 
	C161.465576,120.405251 172.796951,121.984962 184.263855,119.711342 
	C193.925476,117.795677 202.629623,113.911453 208.513641,105.396431 
	C214.567490,96.635612 214.020477,88.750038 206.676453,81.083992 
	C204.492310,78.804092 202.025009,76.787437 199.927811,74.435791 
	C198.933701,73.321075 197.685654,71.421814 198.039642,70.386307 
	C198.432068,69.238289 200.571976,67.897133 201.864609,67.980438 
	C208.416458,68.402596 214.940262,69.260201 222.292343,70.028740 
M155.862076,68.383812 
	C158.411285,62.031704 160.960495,55.679596 163.764893,48.691605 
	C154.592377,48.691605 146.444244,48.895771 138.314713,48.595840 
	C134.833771,48.467415 133.456253,49.729996 132.267654,52.848457 
	C124.337540,73.654335 116.182121,94.374306 108.115074,115.128082 
	C107.672607,116.266396 107.366051,117.457542 106.935570,118.815430 
	C117.419685,118.815430 127.379478,118.815430 137.301529,118.815430 
	C143.428528,102.124374 149.491089,85.608856 155.862076,68.383812 
M164.394806,24.055391 
	C157.425262,24.055391 150.455704,24.055391 143.310532,24.055391 
	C141.119995,30.217531 138.984039,36.226074 136.651001,42.789051 
	C146.013016,42.789051 154.630569,42.837204 163.245804,42.717987 
	C164.153030,42.705433 165.547531,41.912228 165.866058,41.133537 
	C168.108612,35.651222 170.128433,30.077793 172.399948,24.054741 
	C169.628143,24.054741 167.493500,24.054741 164.394806,24.055391 
z"/>
<path fill="#FEFDFF" opacity="1.000000" stroke="none" 
	d="
M707.188782,67.323669 
	C705.161133,68.523079 703.428955,69.508537 701.116638,70.824074 
	C706.561157,74.267937 709.619934,78.914322 709.065369,85.317665 
	C708.310608,94.032997 704.129944,101.117500 698.179443,107.210258 
	C692.276001,113.254837 684.860168,117.328697 676.610352,117.748322 
	C655.528503,118.820633 634.399414,118.964050 612.369995,119.501457 
	C614.594482,114.041992 616.495605,109.664879 618.175781,105.204544 
	C627.613647,80.151253 637.007080,55.081207 646.385498,30.005611 
	C647.195923,27.838919 647.459412,25.765165 650.812012,25.763762 
	C666.468567,25.757204 682.124451,25.380684 697.781616,25.270298 
	C701.600403,25.243376 705.456726,25.481607 709.237183,26.013998 
	C720.478943,27.597139 725.114807,34.464935 722.473877,45.463314 
	C720.281494,54.594208 715.220337,61.791286 707.188782,67.323669 
M670.294800,97.194733 
	C672.826355,94.987640 676.026001,93.202110 677.743103,90.481056 
	C680.819275,85.606384 678.677002,82.233589 672.795532,81.934814 
	C668.322327,81.707581 663.829224,81.715805 659.351318,81.842934 
	C658.237854,81.874542 656.515198,82.493332 656.153625,83.316910 
	C654.110596,87.969704 652.396729,92.767036 650.343628,98.105721 
	C654.984924,98.105721 658.785767,98.179901 662.581848,98.078186 
	C664.893311,98.016258 667.197510,97.683182 670.294800,97.194733 
M665.570435,58.304592 
	C666.102478,59.213764 666.607605,60.889832 667.170837,60.909588 
	C671.306641,61.054653 675.530212,61.316921 679.571411,60.630905 
	C682.331482,60.162361 685.489075,58.798206 687.279053,56.779434 
	C689.005859,54.831875 690.107117,51.385605 689.703857,48.884632 
	C689.496582,47.599293 685.453491,46.263073 683.069214,46.109833 
	C670.269165,45.287163 670.261047,45.413158 665.570435,58.304592 
z"/>
<path fill="#FDFDFF" opacity="1.000000" stroke="none" 
	d="
M110.582733,82.541275 
	C100.973244,98.923683 88.436401,111.304573 69.947250,116.307594 
	C65.322517,117.559006 60.441788,118.390274 55.664913,118.459305 
	C38.237144,118.711136 20.803537,118.558868 2.931077,118.558868 
	C5.675812,111.998642 8.532827,105.659180 11.005029,99.173035 
	C19.775675,76.162148 28.490047,53.128914 37.016212,30.026815 
	C38.180008,26.873449 39.471500,25.745647 42.957260,25.781683 
	C59.444748,25.952135 75.944450,25.397730 92.423889,25.782774 
	C116.912010,26.354942 123.705360,42.094891 118.349808,62.759766 
	C116.614799,69.454460 113.347557,75.752060 110.582733,82.541275 
M87.060394,59.598549 
	C86.573463,51.746735 83.943169,48.712383 76.319595,47.967606 
	C72.207603,47.565891 68.003159,47.481983 63.903618,47.889862 
	C62.256485,48.053741 59.997517,49.583763 59.356670,51.069740 
	C56.270088,58.226807 53.641212,65.581238 50.848774,72.865196 
	C47.901493,80.553032 44.952911,88.240364 41.970024,96.018860 
	C66.742706,100.165703 82.982742,85.204704 87.060394,59.598549 
z"/>
<path fill="#FDFDFF" opacity="1.000000" stroke="none" 
	d="
M474.068939,87.024857 
	C478.480804,75.309273 482.878815,63.996624 486.986298,52.579437 
	C488.063629,49.584885 489.506348,48.516384 492.709686,48.613716 
	C500.679688,48.855865 508.661987,48.693401 517.010376,48.693401 
	C516.840515,50.254017 516.710449,51.449356 516.521851,53.182125 
	C517.893799,52.793499 519.050293,52.419231 520.229248,52.139565 
	C527.591980,50.392990 534.914978,48.421726 542.349854,47.066669 
	C544.999634,46.583717 547.974731,47.386105 550.715271,47.991287 
	C559.971924,50.035385 564.279053,56.182461 561.670410,65.235657 
	C558.963135,74.631180 555.134094,83.706772 551.721619,92.894806 
	C548.886353,100.528549 546.037720,108.160789 542.961060,115.698174 
	C542.414062,117.038277 540.749573,118.818024 539.554016,118.854523 
	C530.766602,119.122849 521.967102,118.999451 512.382202,118.999451 
	C514.556030,113.532173 516.580322,108.674736 518.424500,103.749893 
	C521.453369,95.661484 524.664490,87.622383 527.227539,79.384758 
	C529.113098,73.324493 525.124634,69.631622 518.982178,71.358063 
	C512.090332,73.295090 507.537201,78.217308 504.728180,84.442810 
	C500.221466,94.430794 496.100677,104.602882 492.152222,114.826714 
	C490.962769,117.906593 489.684875,119.227867 486.186523,119.099358 
	C477.900513,118.794968 469.595734,119.001518 460.666718,119.001518 
	C465.237518,108.120674 469.592041,97.754700 474.068939,87.024857 
z"/>
<path fill="#FDFCFF" opacity="1.000000" stroke="none" 
	d="
M380.330627,96.405411 
	C386.098053,81.637566 391.817139,67.273445 397.251099,52.802258 
	C398.438629,49.639713 399.917786,48.479858 403.353760,48.601013 
	C411.457336,48.886742 419.577850,48.692669 428.436737,48.692669 
	C424.201202,58.862759 420.197449,68.312881 416.339417,77.822144 
	C414.842896,81.510674 413.436676,85.269531 412.419586,89.110283 
	C411.158722,93.871407 413.481201,96.522575 418.421906,96.237228 
	C423.859131,95.923187 428.202362,93.146698 430.453888,88.451073 
	C435.255829,78.436432 439.660706,68.215187 443.822449,57.914627 
	C447.496918,48.820091 447.253723,48.732224 456.784851,48.762924 
	C462.777710,48.782227 468.770752,48.759388 474.763580,48.779335 
	C475.069092,48.780354 475.373871,49.007469 475.755676,49.159950 
	C475.724487,49.621166 475.812531,50.152180 475.641876,50.579994 
	C466.590881,73.268349 457.518005,95.947975 448.356812,118.854950 
	C439.674744,118.854950 430.704407,118.854950 421.423706,118.854950 
	C421.649109,117.375481 421.858246,116.003098 422.158661,114.031357 
	C421.044403,114.346786 420.280518,114.401741 419.694458,114.753235 
	C411.393768,119.731476 402.405762,121.563988 392.863342,120.353821 
	C379.822754,118.700027 375.536774,112.069786 379.226044,99.608246 
	C379.509155,98.652069 379.860321,97.716064 380.330627,96.405411 
z"/>
<path fill="#FDFDFF" opacity="1.000000" stroke="none" 
	d="
M360.219421,107.257538 
	C345.377502,119.029312 328.890106,123.167686 310.773041,119.214569 
	C294.917328,115.754868 288.304718,104.812500 292.450287,89.105804 
	C298.114014,67.647308 312.714783,54.925381 333.627502,49.074684 
	C342.879333,46.486320 352.280914,45.940811 361.721771,48.716621 
	C375.798767,52.855556 381.902679,63.008133 378.627197,77.323990 
	C375.900909,89.239525 369.844971,99.143982 360.219421,107.257538 
M323.006775,84.643036 
	C321.578400,89.280289 319.698029,94.064247 324.561218,97.848549 
	C327.794464,100.364502 334.847443,99.776924 338.798706,95.616875 
	C342.568024,91.648399 345.461914,86.670509 347.970459,81.744164 
	C349.683746,78.379547 350.322418,74.163582 346.829834,71.134644 
	C343.240295,68.021614 339.085358,68.673622 335.093506,70.407623 
	C329.051453,73.032196 325.765594,78.146912 323.006775,84.643036 
z"/>
<path fill="#FDFCFF" opacity="1.000000" stroke="none" 
	d="
M806.578125,117.646240 
	C797.405640,112.468773 793.929688,105.452171 795.357910,95.487175 
	C800.078308,62.554138 831.255310,40.958557 863.535828,48.262001 
	C874.079041,50.647404 879.590576,58.350384 878.395813,69.055656 
	C878.230042,70.540970 878.086243,72.039993 877.761475,73.494522 
	C874.793884,86.784416 873.637573,87.696907 860.169006,87.709175 
	C850.513123,87.717964 840.855896,87.674843 831.202454,87.841629 
	C829.020264,87.879318 825.892212,86.395943 825.143799,90.273460 
	C824.406433,94.093803 825.137817,97.771568 829.093872,98.892220 
	C833.302368,100.084404 837.896240,100.728363 842.240417,100.429115 
	C848.004700,100.032021 853.688293,98.479500 859.410706,97.446602 
	C860.506470,97.248825 861.621521,97.158157 864.058167,96.849579 
	C860.381958,104.163536 857.190308,110.628273 853.842834,117.011292 
	C853.472839,117.716827 852.256775,118.219971 851.358093,118.370987 
	C836.515686,120.865425 821.671570,122.499886 806.578125,117.646240 
M833.112549,71.619453 
	C832.551697,72.529381 831.990845,73.439308 831.061340,74.947296 
	C836.366577,74.947296 840.955872,74.761192 845.521484,75.009308 
	C848.855408,75.190483 850.970337,74.504662 850.981445,70.685043 
	C850.992310,66.945518 848.906311,65.181458 845.487488,65.059578 
	C840.494751,64.881599 836.670715,67.326920 833.112549,71.619453 
z"/>
<path fill="#FDFCFF" opacity="1.000000" stroke="none" 
	d="
M745.558411,52.470806 
	C757.463074,47.116024 769.471008,45.543480 781.940613,48.100254 
	C794.410828,50.657127 800.157959,59.341339 797.749268,71.917023 
	C797.624634,72.567772 797.359253,73.190300 797.204956,73.836838 
	C793.899109,87.686340 793.876953,87.696365 779.919067,87.708626 
	C770.097046,87.717247 760.272095,87.636467 750.455627,87.882271 
	C748.552307,87.929924 745.012756,89.498528 745.075317,90.030983 
	C745.411377,92.890816 745.886963,97.214546 747.731323,98.108192 
	C751.551453,99.959091 756.302124,100.749359 760.601318,100.542854 
	C766.528503,100.258133 772.392212,98.649818 778.282593,97.605614 
	C779.719666,97.350876 781.154785,97.085007 783.690979,96.624481 
	C780.032959,103.924240 776.862122,110.403854 773.496826,116.780861 
	C773.061584,117.605606 771.674622,118.212952 770.637207,118.391960 
	C756.963989,120.751427 743.249756,122.204895 729.535156,118.794182 
	C720.480408,116.542336 714.828308,109.846039 714.996216,100.441322 
	C715.359863,80.078537 725.845459,65.420975 742.192505,54.360298 
	C743.150757,53.711906 744.220886,53.228806 745.558411,52.470806 
M763.657104,65.051147 
	C757.802307,65.852661 753.823303,69.109589 750.869873,74.677948 
	C757.441833,74.677948 763.479309,74.677948 769.455322,74.677948 
	C771.456543,67.717773 770.628357,66.170937 763.657104,65.051147 
z"/>
<path fill="#FCFBFF" opacity="1.000000" stroke="none" 
	d="
M603.045471,98.355194 
	C606.421753,97.978172 609.354736,97.610191 612.903442,97.164963 
	C609.425415,103.981667 606.238525,110.355103 602.891724,116.643440 
	C602.416992,117.535400 601.197205,118.544304 600.267639,118.600906 
	C591.360168,119.143364 582.386414,120.276146 573.541809,119.659325 
	C565.915833,119.127502 562.267212,112.996040 564.654480,105.491508 
	C567.771790,95.692200 571.901794,86.215210 575.589966,76.597191 
	C576.235046,74.915024 576.849854,73.221291 577.741455,70.827148 
	C574.353088,70.640770 571.480530,70.482758 567.929565,70.287437 
	C570.417053,63.650333 572.578979,57.270035 575.318726,51.148327 
	C575.799622,50.073792 578.752319,49.541855 580.478943,49.697475 
	C585.093445,50.113384 588.230774,48.900780 589.119385,43.935608 
	C590.215637,37.810570 594.116394,35.467964 600.124329,34.808296 
	C607.003845,34.052933 613.779114,32.348343 621.279968,30.927280 
	C618.940796,37.246048 616.835510,42.933090 614.416321,49.468071 
	C619.682251,49.468071 624.201233,49.468071 629.436340,49.468071 
	C626.960388,56.342159 624.950317,62.449387 622.465820,68.357063 
	C621.993347,69.480644 619.665588,70.365288 618.156372,70.425690 
	C606.292358,70.900566 606.275391,70.825150 602.078979,81.907738 
	C600.783936,85.328003 599.499023,88.757080 598.373108,92.235107 
	C597.154968,95.998001 598.022339,98.510109 603.045471,98.355194 
z"/>
<path fill="#FDFCFF" opacity="1.000000" stroke="none" 
	d="
M276.090485,108.200928 
	C273.664612,117.909546 266.593140,119.980865 258.288116,120.073112 
	C252.321594,120.139397 246.287598,120.646385 240.400070,119.959496 
	C228.042053,118.517685 221.541550,110.481537 221.978821,98.190689 
	C222.687454,78.273003 238.997787,55.804981 257.560974,49.762608 
	C270.886871,45.424980 284.338226,46.204159 298.388153,49.829918 
	C296.234650,57.458801 294.188934,64.705864 292.128998,72.003189 
	C287.405884,71.013504 283.242096,69.864677 279.000519,69.303581 
	C265.783997,67.555229 255.404358,75.394066 253.225128,88.531433 
	C252.332962,93.909790 254.571793,97.698135 260.028290,97.966187 
	C265.417450,98.230919 270.876526,97.181778 276.297028,96.631462 
	C277.904419,96.468285 279.485138,96.042854 282.248871,95.513237 
	C279.941986,100.251671 278.090607,104.054398 276.090485,108.200928 
z"/>
<path fill="#FDFCFF" opacity="1.000000" stroke="none" 
	d="
M221.883118,69.996964 
	C214.940262,69.260201 208.416458,68.402596 201.864609,67.980438 
	C200.571976,67.897133 198.432068,69.238289 198.039642,70.386307 
	C197.685654,71.421814 198.933701,73.321075 199.927811,74.435791 
	C202.025009,76.787437 204.492310,78.804092 206.676453,81.083992 
	C214.020477,88.750038 214.567490,96.635612 208.513641,105.396431 
	C202.629623,113.911453 193.925476,117.795677 184.263855,119.711342 
	C172.796951,121.984962 161.465576,120.405251 149.484558,117.483009 
	C151.268509,110.144005 152.998245,103.028091 154.816528,95.547905 
	C159.135025,96.845093 162.891190,98.038071 166.687668,99.084953 
	C168.439041,99.567894 170.347885,100.259941 172.047256,99.989525 
	C175.629517,99.419479 179.120773,98.277542 182.649368,97.370270 
	C180.912369,94.776543 179.179367,92.180122 177.432510,89.593056 
	C177.248627,89.320755 176.985840,89.100967 176.755112,88.861214 
	C163.891068,75.494034 166.804688,59.684196 183.624451,51.355953 
	C192.276337,47.071995 201.520203,46.485863 210.880920,47.094578 
	C216.659805,47.470383 222.399826,48.444057 229.362015,49.296894 
	C226.880554,56.573792 224.586441,63.301266 221.883118,69.996964 
z"/>
<path fill="#FDFCFF" opacity="1.000000" stroke="none" 
	d="
M155.707855,68.738571 
	C149.491089,85.608856 143.428528,102.124374 137.301529,118.815430 
	C127.379478,118.815430 117.419685,118.815430 106.935570,118.815430 
	C107.366051,117.457542 107.672607,116.266396 108.115074,115.128082 
	C116.182121,94.374306 124.337540,73.654335 132.267654,52.848457 
	C133.456253,49.729996 134.833771,48.467415 138.314713,48.595840 
	C146.444244,48.895771 154.592377,48.691605 163.764893,48.691605 
	C160.960495,55.679596 158.411285,62.031704 155.707855,68.738571 
z"/>
<path fill="#FAF8FE" opacity="1.000000" stroke="none" 
	d="
M164.876831,24.055065 
	C167.493500,24.054741 169.628143,24.054741 172.399948,24.054741 
	C170.128433,30.077793 168.108612,35.651222 165.866058,41.133537 
	C165.547531,41.912228 164.153030,42.705433 163.245804,42.717987 
	C154.630569,42.837204 146.013016,42.789051 136.651001,42.789051 
	C138.984039,36.226074 141.119995,30.217531 143.310532,24.055391 
	C150.455704,24.055391 157.425262,24.055391 164.876831,24.055065 
z"/>
<path fill="#6727E3" opacity="1.000000" stroke="none" 
	d="
M669.899902,97.333321 
	C667.197510,97.683182 664.893311,98.016258 662.581848,98.078186 
	C658.785767,98.179901 654.984924,98.105721 650.343628,98.105721 
	C652.396729,92.767036 654.110596,87.969704 656.153625,83.316910 
	C656.515198,82.493332 658.237854,81.874542 659.351318,81.842934 
	C663.829224,81.715805 668.322327,81.707581 672.795532,81.934814 
	C678.677002,82.233589 680.819275,85.606384 677.743103,90.481056 
	C676.026001,93.202110 672.826355,94.987640 669.899902,97.333321 
z"/>
<path fill="#6827E4" opacity="1.000000" stroke="none" 
	d="
M665.713257,57.919525 
	C670.261047,45.413158 670.269165,45.287163 683.069214,46.109833 
	C685.453491,46.263073 689.496582,47.599293 689.703857,48.884632 
	C690.107117,51.385605 689.005859,54.831875 687.279053,56.779434 
	C685.489075,58.798206 682.331482,60.162361 679.571411,60.630905 
	C675.530212,61.316921 671.306641,61.054653 667.170837,60.909588 
	C666.607605,60.889832 666.102478,59.213764 665.713257,57.919525 
z"/>
<path fill="#6827E3" opacity="1.000000" stroke="none" 
	d="
M87.048126,60.033764 
	C82.982742,85.204704 66.742706,100.165703 41.970024,96.018860 
	C44.952911,88.240364 47.901493,80.553032 50.848774,72.865196 
	C53.641212,65.581238 56.270088,58.226807 59.356670,51.069740 
	C59.997517,49.583763 62.256485,48.053741 63.903618,47.889862 
	C68.003159,47.481983 72.207603,47.565891 76.319595,47.967606 
	C83.943169,48.712383 86.573463,51.746735 87.048126,60.033764 
z"/>
<path fill="#6928E4" opacity="1.000000" stroke="none" 
	d="
M323.141174,84.281487 
	C325.765594,78.146912 329.051453,73.032196 335.093506,70.407623 
	C339.085358,68.673622 343.240295,68.021614 346.829834,71.134644 
	C350.322418,74.163582 349.683746,78.379547 347.970459,81.744164 
	C345.461914,86.670509 342.568024,91.648399 338.798706,95.616875 
	C334.847443,99.776924 327.794464,100.364502 324.561218,97.848549 
	C319.698029,94.064247 321.578400,89.280289 323.141174,84.281487 
z"/>
<path fill="#6D2EE4" opacity="1.000000" stroke="none" 
	d="
M833.349243,71.350571 
	C836.670715,67.326920 840.494751,64.881599 845.487488,65.059578 
	C848.906311,65.181458 850.992310,66.945518 850.981445,70.685043 
	C850.970337,74.504662 848.855408,75.190483 845.521484,75.009308 
	C840.955872,74.761192 836.366577,74.947296 831.061340,74.947296 
	C831.990845,73.439308 832.551697,72.529381 833.349243,71.350571 
z"/>
<path fill="#6C2DE4" opacity="1.000000" stroke="none" 
	d="
M764.056885,65.029449 
	C770.628357,66.170937 771.456543,67.717773 769.455322,74.677948 
	C763.479309,74.677948 757.441833,74.677948 750.869873,74.677948 
	C753.823303,69.109589 757.802307,65.852661 764.056885,65.029449 
z"/>
</svg>