<?xml version="1.0" standalone="no"?>
<!DOCTYPE svg PUBLIC "-//W3C//DTD SVG 20010904//EN"
 "http://www.w3.org/TR/2001/REC-SVG-20010904/DTD/svg10.dtd">
<svg version="1.0" xmlns="http://www.w3.org/2000/svg"
 width="300.000000pt" height="50.000000pt" viewBox="0 0 300.000000 50.000000"
 preserveAspectRatio="xMidYMid meet">
<metadata>
Created by potrace 1.10, written by Peter Selinger 2001-2011
</metadata>
<g transform="translate(0.000000,50.000000) scale(0.100000,-0.100000)"
fill="#000000" stroke="none">
<path d="M205 451 c16 -8 10 -10 -27 -9 -60 2 -82 -17 -103 -88 -8 -29 -20
-56 -25 -59 -6 -3 -10 -17 -10 -31 0 -13 -5 -24 -10 -24 -6 0 -10 -6 -9 -12 1
-7 1 -20 0 -28 -1 -13 -2 -13 -11 0 -7 11 -10 -5 -10 -51 0 -65 1 -67 27 -72
16 -3 68 -3 118 -1 118 6 119 6 125 13 3 4 19 11 35 16 25 9 33 8 46 -8 16
-21 72 -27 121 -14 17 5 31 2 40 -6 22 -22 157 -7 179 19 15 19 32 18 71 -5
32 -18 167 -40 140 -22 -10 6 -7 10 12 15 14 3 26 11 26 16 0 15 31 12 50 -5
20 -18 127 -38 144 -27 6 3 22 8 36 10 13 2 27 7 30 12 12 20 56 21 74 1 18
-20 54 -21 377 -11 8 0 25 9 37 20 17 16 22 17 22 6 0 -33 117 -44 137 -13 11
17 35 15 56 -5 19 -16 130 -31 120 -15 -6 10 53 9 102 -3 25 -6 44 -5 51 1 8
7 15 6 19 -2 6 -8 10 -7 16 2 6 10 9 11 9 2 0 -7 10 -13 23 -12 21 0 21 1 2 9
-14 6 -4 9 38 9 31 1 57 5 57 9 0 5 12 14 26 20 21 10 28 9 41 -4 25 -24 62
-35 133 -39 36 -2 59 -1 52 2 -8 3 5 14 29 26 33 16 45 18 58 8 9 -6 24 -14
34 -17 9 -4 17 -9 17 -13 0 -3 31 -6 69 -7 39 0 68 3 65 8 -3 4 1 8 9 8 19 0
57 43 57 64 0 21 55 88 64 79 3 -4 6 15 6 40 0 48 -15 73 -59 96 -33 18 -128
13 -171 -9 -49 -25 -54 -25 -89 1 -24 18 -38 20 -92 16 -35 -3 -76 -8 -90 -12
-24 -6 -28 -4 -34 23 -8 40 -32 60 -75 63 -19 2 -41 8 -49 13 -10 8 -15 8 -18
-1 -3 -7 -17 -13 -31 -12 l-27 1 25 8 25 8 -27 1 c-15 1 -30 -3 -33 -9 -3 -5
-20 -10 -37 -10 -19 0 -45 -12 -69 -31 -28 -22 -39 -26 -39 -16 0 39 -94 31
-146 -12 -39 -31 -68 -39 -79 -21 -9 14 -238 13 -252 -1 -8 -8 -17 -8 -31 0
-30 16 -79 14 -107 -5 -22 -14 -26 -14 -47 0 -30 21 -93 21 -116 -1 -27 -26
-40 -26 -72 -3 -36 25 -116 27 -182 3 -44 -16 -48 -16 -66 0 -25 23 -134 22
-182 -1 -33 -16 -36 -16 -54 2 -16 16 -30 18 -96 14 l-78 -5 -6 37 c-4 26 -13
40 -30 48 -32 14 -89 -1 -113 -32 -20 -24 -39 -23 -63 4 -11 12 -38 20 -85 24
-39 4 -81 9 -95 12 -22 4 -23 3 -5 -5z m364 -59 c-10 -30 -14 -32 -60 -32 -27
0 -49 2 -49 4 0 3 4 16 10 30 8 21 16 25 57 28 26 2 49 3 51 2 1 0 -3 -15 -9
-32z m-214 14 c23 -10 37 -24 41 -41 19 -76 -35 -186 -115 -233 -41 -24 -58
-27 -159 -31 -61 -2 -112 0 -112 4 0 4 25 69 55 146 30 76 55 146 55 154 0 21
186 21 235 1z m2063 -2 c12 -8 22 -25 22 -37 0 -31 -35 -84 -61 -92 -20 -7
-20 -8 -6 -17 41 -22 2 -119 -58 -144 -23 -9 -71 -14 -144 -14 l-110 0 28 63
c16 34 44 106 62 159 l34 98 105 0 c79 0 111 -4 128 -16z m-333 -34 c-20 -39
-19 -41 10 -34 28 7 30 1 14 -45 -10 -28 -16 -32 -36 -28 -21 4 -27 -1 -39
-29 -22 -52 -19 -67 11 -60 l26 7 -20 -39 c-21 -42 -57 -56 -114 -45 -39 8
-43 39 -13 107 31 70 31 69 7 61 -19 -6 -19 -5 -4 35 13 32 21 40 35 37 13 -4
20 2 24 19 5 17 16 25 47 33 68 15 69 15 52 -19z m-1317 -35 c2 -2 -1 -19 -8
-39 -10 -32 -13 -34 -37 -25 -14 5 -34 7 -45 3 -17 -5 -16 -8 12 -41 23 -25
29 -40 24 -56 -17 -58 -83 -88 -172 -79 -42 4 -43 5 -36 36 9 43 15 47 52 36
56 -15 67 -3 32 36 -16 19 -30 39 -30 45 0 10 28 69 33 69 1 0 20 7 42 15 35
13 120 13 133 0z m203 9 l36 -6 -11 -39 c-10 -38 -10 -38 -52 -32 -37 5 -46 2
-69 -21 -16 -16 -25 -35 -23 -49 3 -19 8 -22 51 -20 26 1 47 0 47 -2 0 -2 -9
-20 -21 -39 -22 -37 -39 -43 -114 -38 -68 5 -87 78 -40 157 43 74 108 103 196
89z m276 -20 c33 -21 39 -59 17 -112 -24 -56 -76 -99 -134 -110 -123 -22 -183
45 -127 142 51 90 169 129 244 80z m616 17 c40 -16 40 -38 1 -143 l-37 -98
-48 0 c-27 0 -49 2 -49 5 0 3 11 33 25 67 31 77 31 88 0 88 -29 0 -55 -36 -83
-113 l-17 -47 -51 0 -51 0 43 108 c24 59 44 113 44 120 0 8 17 12 50 12 28 0
50 -4 50 -10 0 -5 15 -3 33 5 38 17 57 18 90 6z m779 -2 c43 -11 54 -37 44
-94 l-7 -35 -84 0 c-68 0 -85 -3 -85 -15 0 -25 37 -37 86 -27 24 5 44 8 44 6
0 -2 -8 -19 -17 -39 -15 -31 -21 -35 -57 -37 -104 -4 -142 8 -152 48 -16 63
48 162 121 188 50 18 61 19 107 5z m277 0 c41 -14 56 -49 41 -95 l-12 -34 -78
0 c-83 0 -108 -12 -74 -37 18 -13 55 -12 107 3 17 5 17 3 -3 -35 -19 -38 -24
-41 -63 -42 -87 -3 -112 2 -134 27 -29 32 -29 48 3 112 28 56 60 85 114 100
47 14 62 14 99 1z m-2374 -16 c-5 -10 -25 -63 -46 -118 l-37 -100 -58 -3 c-46
-2 -55 -1 -47 10 9 11 60 136 86 211 5 13 18 17 58 17 45 0 50 -2 44 -17z
m874 -48 c-34 -76 -36 -95 -10 -95 27 0 57 42 78 106 l17 54 51 0 52 0 -43
-107 c-24 -60 -44 -114 -44 -120 0 -9 -17 -13 -50 -13 -27 0 -50 4 -50 9 0 5
-17 3 -39 -5 -43 -15 -89 -7 -105 18 -7 12 -1 37 21 94 17 44 34 89 38 102 5
19 13 22 60 22 l54 0 -30 -65z"/>
<path d="M193 323 c-3 -10 -17 -45 -29 -77 -13 -33 -24 -63 -24 -66 0 -15 82
9 105 30 29 27 48 71 43 102 -2 19 -10 23 -46 26 -33 3 -44 -1 -49 -15z m54
-39 c5 -14 -45 -70 -53 -61 -4 4 1 18 10 32 9 14 14 30 10 36 -4 7 1 10 11 7
10 -1 20 -8 22 -14z"/>
<path d="M2252 325 c-11 -24 -10 -25 22 -25 35 0 63 21 51 40 -3 5 -19 10 -34
10 -20 0 -31 -7 -39 -25z"/>
<path d="M2203 200 c-11 -29 -11 -30 21 -30 40 0 71 21 63 44 -4 10 -18 16
-39 16 -28 0 -35 -5 -45 -30z"/>
<path d="M1119 260 c-24 -14 -45 -68 -31 -82 20 -20 62 1 78 38 8 19 12 39 9
44 -8 13 -35 12 -56 0z"/>
<path d="M2540 265 c-11 -13 -7 -15 24 -15 25 0 36 4 36 15 0 9 -9 15 -24 15
-13 0 -29 -7 -36 -15z"/>
<path d="M2810 265 c-11 -13 -7 -15 24 -15 25 0 36 4 36 15 0 9 -9 15 -24 15
-13 0 -29 -7 -36 -15z"/>
</g>
</svg>
